<svg xmlns="http://www.w3.org/2000/svg" width="250" height="45.83" viewBox="0 0 180 33">
    <g fill="none" fill-rule="evenodd">
        <path d="M14.975 14.77c-.96-.372-1.612-.741-1.957-1.108-.357-.402-.543-.928-.516-1.465-.032-.555.141-1.102.486-1.539.326-.375.839-.563 1.538-.563.614-.028 1.203.243 1.582.727.276.369.45.804.507 1.261.093.51.54.88 1.059.874h1.341c.305.005.597-.124.798-.352.202-.229.294-.534.252-.836-.122-.924-.502-1.794-1.099-2.51-.788-.924-1.895-1.49-3.323-1.699V5.046h-1.892v2.492c-1.468.145-2.622.616-3.462 1.44-.855.847-1.313 2.014-1.261 3.216 0 1.436.416 2.525 1.249 3.268.833.742 2.149 1.434 3.948 2.076.707.226 1.358.6 1.91 1.096.376.422.57.974.542 1.538.036.571-.172 1.13-.572 1.539-.461.395-1.06.593-1.665.55-.686.03-1.356-.204-1.874-.655-.371-.371-.603-.86-.655-1.381-.09-.502-.53-.865-1.04-.859H9.505c-.303-.005-.592.121-.794.346-.202.225-.296.527-.259.826.108 1.055.588 2.037 1.354 2.77 1.032.895 2.33 1.427 3.692 1.517v2.252h1.893v-2.292c1.483-.148 2.643-.617 3.48-1.407.837-.79 1.255-1.868 1.255-3.236 0-1.4-.41-2.473-1.23-3.222-.821-.749-2.128-1.466-3.92-2.15z"/>
        <path d="M14.975 14.77c-.96-.372-1.612-.741-1.957-1.108-.357-.402-.543-.928-.516-1.465-.032-.555.141-1.102.486-1.539.326-.375.839-.563 1.538-.563.614-.028 1.203.243 1.582.727.276.369.45.804.507 1.261.093.51.54.88 1.059.874h1.341c.305.005.597-.124.798-.352.202-.229.294-.534.252-.836-.122-.924-.502-1.794-1.099-2.51-.788-.924-1.895-1.49-3.323-1.699V5.046h-1.892v2.492c-1.468.145-2.622.616-3.462 1.44-.855.847-1.313 2.014-1.261 3.216 0 1.436.416 2.525 1.249 3.268.833.742 2.149 1.434 3.948 2.076.707.226 1.358.6 1.91 1.096.376.422.57.974.542 1.538.036.571-.172 1.13-.572 1.539-.461.395-1.06.593-1.665.55-.686.03-1.356-.204-1.874-.655-.371-.371-.603-.86-.655-1.381-.09-.502-.53-.865-1.04-.859H9.505c-.303-.005-.592.121-.794.346-.202.225-.296.527-.259.826.108 1.055.588 2.037 1.354 2.77 1.032.895 2.33 1.427 3.692 1.517v2.252h1.893v-2.292c1.483-.148 2.643-.617 3.48-1.407.837-.79 1.255-1.868 1.255-3.236 0-1.4-.41-2.473-1.23-3.222-.821-.749-2.128-1.466-3.92-2.15z"/>
        <path fill="#0072ED" fill-rule="nonzero" d="M23 2.462H4.948C2.255 2.426.042 4.576 0 7.268v17.578c.037 2.696 2.252 4.851 4.948 4.816H23c2.696.035 4.91-2.12 4.948-4.816V7.268C27.906 4.576 25.692 2.426 23 2.462zm-4.117 20.923c-.837.79-1.997 1.258-3.48 1.406v2.286h-1.892v-2.28c-1.364-.09-2.66-.622-3.693-1.517-.766-.733-1.246-1.714-1.353-2.77-.038-.3.057-.6.258-.825.202-.225.492-.352.794-.347h1.366c.51-.006.95.357 1.04.859.053.522.284 1.01.655 1.381.518.451 1.189.686 1.874.656.606.042 1.204-.155 1.665-.55.4-.41.609-.969.572-1.54.028-.563-.166-1.116-.541-1.538-.558-.488-1.214-.852-1.923-1.068-1.8-.63-3.115-1.32-3.948-2.07-.833-.751-1.25-1.842-1.25-3.274-.05-1.202.407-2.37 1.262-3.216.84-.812 1.994-1.295 3.462-1.44V5.046h1.892V7.56c1.436.205 2.544.771 3.323 1.698.597.717.977 1.587 1.099 2.511.042.302-.05.607-.252.836-.201.228-.493.357-.798.352h-1.347c-.517.002-.96-.366-1.053-.874-.058-.453-.231-.883-.504-1.25-.379-.483-.968-.753-1.582-.725-.7 0-1.212.187-1.538.563-.345.436-.518.983-.486 1.538-.027.537.159 1.063.517 1.465.344.365.995.73 1.953 1.095 1.785.677 3.092 1.395 3.92 2.154.83.76 1.24 1.833 1.231 3.222.008 1.364-.406 2.444-1.243 3.24z"/>
        <path fill="#0072ED" d="M43.265 16.615c-.043 1.074.33 2.122 1.043 2.927.689.75 1.656 1.125 2.901 1.123 1.245-.002 2.213-.377 2.902-1.123.703-.809 1.069-1.856 1.021-2.927.048-1.076-.321-2.13-1.03-2.941-.69-.749-1.657-1.123-2.902-1.123s-2.21.37-2.892 1.11c-.718.812-1.092 1.872-1.043 2.954zm-4.523-8.027h4.523v2.114h.067c.223-.32.481-.613.77-.874.342-.318.72-.594 1.129-.822.44-.249.908-.448 1.394-.594.52-.157 1.062-.236 1.606-.234 1.101-.013 2.194.196 3.212.616.937.392 1.781.977 2.477 1.717.7.76 1.24 1.654 1.588 2.627.382 1.07.572 2.2.56 3.336-.002 1.094-.18 2.18-.526 3.218-.319.985-.806 1.906-1.44 2.723-.618.786-1.395 1.43-2.28 1.893-.943.484-1.99.729-3.05.71-.976.009-1.947-.154-2.867-.48-.877-.31-1.638-.88-2.182-1.633h-.065v9.249h-4.923l.007-23.566zM58.523 8.578h5.062v2.591h.067c.45-.893 1.11-1.664 1.923-2.246.838-.524 1.813-.785 2.8-.748.293 0 .585 0 .877.034.274.021.546.066.813.133v4.553c-.349-.107-.705-.19-1.065-.249-.362-.056-.729-.084-1.095-.083-.785-.035-1.569.102-2.296.4-.531.238-.983.623-1.301 1.11-.32.52-.522 1.105-.591 1.712-.094.726-.139 1.458-.135 2.19v6.742h-5.059V8.578zM75.692 16.45c-.046 1.055.315 2.088 1.01 2.885.672.737 1.618 1.104 2.836 1.102 1.219-.002 2.165-.37 2.837-1.102.696-.796 1.057-1.83 1.01-2.886.047-1.056-.316-2.09-1.013-2.886-.67-.736-1.616-1.104-2.837-1.101-1.22.002-2.166.369-2.837 1.101-.693.797-1.053 1.83-1.006 2.886m-4.806 0c-.018-1.17.21-2.33.67-3.406.431-.987 1.06-1.875 1.847-2.61.803-.734 1.745-1.302 2.77-1.67 2.188-.781 4.58-.781 6.769 0 1.025.366 1.967.934 2.769 1.67.79.733 1.418 1.622 1.846 2.61.461 1.076.69 2.236.674 3.406.017 1.17-.213 2.329-.674 3.403-.428.99-1.057 1.88-1.846 2.613-.802.736-1.744 1.304-2.77 1.67-2.189.777-4.58.777-6.769 0-1.024-.367-1.966-.935-2.769-1.67-.788-.736-1.416-1.625-1.846-2.613-.46-1.074-.689-2.234-.67-3.403M91.495 8.578h4.662v2.191h.065c.171-.336.389-.646.646-.923.295-.321.632-.6 1.003-.83.414-.256.86-.457 1.326-.598.525-.158 1.07-.237 1.618-.233 1.02-.02 2.028.22 2.93.698.874.49 1.554 1.264 1.926 2.194.45-.923 1.16-1.696 2.04-2.225.909-.468 1.922-.696 2.944-.664.922-.029 1.837.16 2.671.55.694.338 1.286.853 1.717 1.493.438.678.745 1.433.905 2.224.188.902.28 1.82.274 2.742v9.538h-4.837V15.32c.018-.678-.144-1.35-.471-1.945-.308-.541-.868-.812-1.668-.812-.484-.015-.965.081-1.406.283-.364.177-.677.445-.908.779-.234.353-.399.748-.486 1.163-.097.458-.146.925-.144 1.394v8.535h-4.871v-8.535c0-.287 0-.64-.031-1.062-.02-.407-.096-.809-.228-1.194-.123-.37-.34-.702-.63-.963-.361-.29-.819-.434-1.28-.4-.53-.019-1.055.106-1.52.36-.377.22-.684.54-.89.923-.213.41-.35.853-.406 1.31-.066.511-.098 1.025-.095 1.54v8.02h-4.856V8.579zM124.33 16.45c-.049 1.055.313 2.09 1.008 2.885.673.737 1.619 1.104 2.837 1.102 1.219-.002 2.164-.37 2.837-1.102.696-.796 1.057-1.83 1.01-2.886.048-1.056-.314-2.09-1.01-2.886-.675-.736-1.62-1.104-2.837-1.101-1.216.002-2.162.369-2.837 1.101-.695.796-1.057 1.83-1.009 2.886m-4.809 0c-.017-1.17.213-2.33.674-3.406.429-.988 1.057-1.876 1.846-2.61.802-.736 1.744-1.304 2.77-1.67 2.188-.781 4.58-.781 6.768 0 1.026.367 1.967.935 2.77 1.67.787.735 1.416 1.623 1.846 2.61.46 1.076.69 2.236.674 3.406.017 1.17-.213 2.329-.674 3.403-.43.988-1.059 1.877-1.846 2.613-.803.735-1.744 1.303-2.77 1.67-2.19.777-4.58.777-6.769 0-1.025-.366-1.967-.934-2.769-1.67-.789-.735-1.417-1.624-1.846-2.613-.461-1.074-.69-2.234-.674-3.403M144.655 16.443c-.045 1.048.323 2.073 1.025 2.852.683.727 1.643 1.09 2.88 1.09 1.237 0 2.196-.363 2.877-1.09.702-.78 1.07-1.804 1.025-2.852.045-1.048-.323-2.073-1.025-2.852-.683-.726-1.642-1.09-2.877-1.09-1.235 0-2.195.364-2.88 1.09-.702.78-1.07 1.804-1.025 2.852zM140.166 0h4.88v10.32h.065c.542-.733 1.292-1.286 2.154-1.585.915-.316 1.877-.473 2.846-.464 1.049-.02 2.087.217 3.024.689.876.449 1.647 1.078 2.262 1.846.63.79 1.114 1.684 1.43 2.643.34 1.007.511 2.064.505 3.126.012 1.104-.175 2.2-.55 3.237-.349.948-.886 1.815-1.579 2.548-.693.723-1.532 1.29-2.461 1.665-1.01.405-2.089.605-3.176.59-.54.004-1.076-.071-1.594-.224-.48-.141-.943-.334-1.381-.576-.398-.218-.77-.482-1.108-.784-.284-.255-.54-.54-.763-.85h-.065v2.05h-4.489V0zM160.308 24.717h4.975V8.665h-4.975v16.052zm-.397-21.105c-.012-.764.294-1.499.843-2.03 1.127-1.125 2.952-1.125 4.08 0 .55.53.856 1.266.846 2.03.01.765-.296 1.5-.846 2.031-1.128 1.124-2.953 1.124-4.08 0-.55-.531-.855-1.266-.843-2.03zM179.692 12.545h-4.307v5.23c-.002.393.02.786.064 1.176.036.326.141.64.308.923.164.269.41.478.701.597.403.154.832.225 1.262.209.344-.006.687-.034 1.028-.083.352-.023.689-.151.966-.37v4.007c-.557.195-1.136.323-1.723.381-.575.064-1.154.096-1.733.096-.77.007-1.539-.08-2.289-.259-.662-.15-1.29-.428-1.846-.818-.528-.377-.951-.882-1.23-1.468-.306-.68-.454-1.42-.431-2.166v-7.455h-3.139V8.683h3.139V4.046h4.923v4.637h4.307v3.862z"/>
    </g>
</svg>
